<svg width="24" height="24" viewBox="0 0 24 24" fill="none" xmlns="http://www.w3.org/2000/svg">
    <path
        d="M10.3179 5L11.256 6.3226C10.0583 7.16565 9.01304 8.20679 8.1653 9.40125C7.53375 10.3053 7.18626 11.3773 7.1673 12.4799V12.8172C7.40789 12.7854 7.62811 12.7574 7.82797 12.7332C8.01546 12.7097 8.2042 12.6974 8.39316 12.6963C8.78485 12.6849 9.17474 12.7537 9.53882 12.8986C9.90289 13.0436 10.2334 13.2615 10.5101 13.539C10.786 13.8118 11.0031 14.1383 11.148 14.4982C11.293 14.8581 11.3626 15.2439 11.3528 15.6318C11.3749 16.0793 11.3076 16.5267 11.1548 16.9478C11.002 17.369 10.7668 17.7555 10.463 18.0848C10.1548 18.3923 9.78617 18.6324 9.38034 18.79C8.97452 18.9475 8.54039 19.019 8.10547 19C7.58298 19.0112 7.06494 18.9019 6.59145 18.6807C6.11796 18.4596 5.70173 18.1324 5.375 17.7245C4.63518 16.7989 4.25495 15.6369 4.30442 14.453C4.30162 12.6341 4.82842 10.8538 5.82051 9.32933C6.99376 7.58203 8.52718 6.10589 10.3179 5ZM18.7103 5L19.6472 6.3226C18.4494 7.16565 17.4042 8.20679 16.5565 9.40125C15.9249 10.3053 15.5774 11.3773 15.5585 12.4799V12.8172C15.7825 12.7854 15.9951 12.7574 16.1962 12.7332C16.3918 12.7091 16.5886 12.6968 16.7856 12.6963C17.1747 12.681 17.5628 12.7469 17.9251 12.8898C18.2874 13.0327 18.6159 13.2495 18.8898 13.5263C19.1579 13.8057 19.3673 14.1359 19.5057 14.4975C19.6441 14.8592 19.7086 15.2448 19.6956 15.6318C19.741 16.5315 19.43 17.4129 18.83 18.0848C18.5276 18.3933 18.1633 18.6343 17.7612 18.792C17.3591 18.9497 16.9281 19.0206 16.4966 19C15.9709 19.0093 15.45 18.8994 14.9729 18.6785C14.4958 18.4576 14.0749 18.1314 13.742 17.7245C12.9881 16.8052 12.5985 15.6409 12.6472 14.453C12.6533 12.6526 13.1841 10.8931 14.1748 9.3898C15.3642 7.62645 16.9091 6.1312 18.7103 5Z"
        fill="black" />
</svg>